<?xml version="1.0" encoding="UTF-8" standalone="no"?>
<svg width="903px" height="77px" viewBox="0 0 903 77" version="1.1" xmlns="http://www.w3.org/2000/svg" xmlns:xlink="http://www.w3.org/1999/xlink">
    <!-- Generator: Sketch 40.3 (33839) - http://www.bohemiancoding.com/sketch -->
    <title>SALTY RUNNING</title>
    <desc>Created with Sketch.</desc>
    <defs></defs>
    <g id="Logo" stroke="none" stroke-width="1" fill="none" fill-rule="evenodd">
        <g id="Artboard" transform="translate(-226.000000, -100.000000)" fill="#D8EB00">
            <path d="M276.12,134.448 C266.686,131.056 247.818,129.466 247.818,121.41 C247.818,116.852 254.92,115.792 258.524,115.792 C265.732,115.792 272.516,118.654 278.134,123.106 L290.324,113.46 C283.116,105.298 269.866,100.104 257.464,100.104 C247.394,100.104 231.176,106.252 231.176,122.152 C231.176,137.31 250.786,143.988 261.174,146.426 C266.05,147.592 277.816,149.394 277.816,154.906 C277.816,160.312 268.488,160.842 263.506,160.842 C254.496,160.842 245.486,157.45 239.126,150.984 L226.83,160.736 C236.9,170.806 249.09,176.424 264.354,176.424 C282.056,176.424 293.398,168.05 293.398,155.012 C293.398,146.002 287.462,138.582 276.12,134.448 L276.12,134.448 Z M344.168,100.422 L335.476,100.422 L300.178,176 L317.456,176 L322.544,164.976 L356.994,164.976 L362.188,176 L379.466,176 L344.168,100.422 Z M329.858,149.288 L339.822,128.088 L349.786,149.288 L329.858,149.288 Z M408.796,160.418 L408.796,100.422 L393.108,100.422 L393.108,176 L436.674,176 L436.674,160.418 L408.796,160.418 Z M437.292,100.422 L437.292,116.11 L456.69,116.11 L456.69,176 L472.272,176 L472.272,116.11 L491.67,116.11 L491.67,100.422 L437.292,100.422 Z M539.154,125.862 L519.438,100.422 L499.616,100.422 L531.416,141.338 L531.416,176 L546.998,176 L546.998,141.338 L578.798,100.422 L558.976,100.422 L539.154,125.862 Z M667.484,149.818 C675.858,145.048 680.628,136.886 680.628,127.24 C680.628,112.506 669.392,100.422 650.206,100.422 L621.904,100.422 L621.904,176 L637.592,176 L637.592,153.952 L651.266,153.952 L661.76,176 L680.84,176 L667.484,149.818 Z M650.206,138.264 L637.592,138.264 L637.592,116.11 L650.206,116.11 C660.806,116.11 665.046,121.834 665.046,127.24 C665.046,135.508 656.884,138.264 650.206,138.264 L650.206,138.264 Z M746.496,100.422 L746.496,140.49 C746.496,154.588 741.726,160.736 728.9,160.736 C716.074,160.736 711.304,154.588 711.304,140.49 L711.304,100.422 L695.616,100.422 L695.616,140.49 C695.828,163.068 706.746,175.894 728.9,176.424 C749.888,176 761.972,164.022 762.184,140.49 L762.184,100.422 L746.496,100.422 Z M824.328,100.422 L824.328,145.366 C814.47,131.056 793.164,100.422 793.164,100.422 L779.066,100.422 L779.066,176 L794.648,176 L794.648,129.996 L826.448,176 L840.016,176 L840.016,100.422 L824.328,100.422 Z M902.372,100.422 L902.372,145.366 C892.514,131.056 871.208,100.422 871.208,100.422 L857.11,100.422 L857.11,176 L872.692,176 L872.692,129.996 L904.492,176 L918.06,176 L918.06,100.422 L902.372,100.422 Z M956.686,116.11 L963.364,116.11 L963.364,100.422 L934.32,100.422 L934.32,116.11 L941.104,116.11 L941.104,160.418 L934.32,160.418 L934.32,176 L963.364,176 L963.364,160.418 L956.686,160.418 L956.686,116.11 Z M1023.886,100.422 L1023.886,145.366 C1014.028,131.056 992.722,100.422 992.722,100.422 L978.624,100.422 L978.624,176 L994.206,176 L994.206,129.996 L1026.006,176 L1039.574,176 L1039.574,100.422 L1023.886,100.422 Z M1128.762,132.01 L1092.616,132.01 L1092.616,147.592 L1110.954,147.592 C1107.456,155.754 1099.082,160.736 1090.602,160.736 C1078.306,160.736 1068.13,150.56 1068.13,138.264 C1068.13,125.862 1078.2,115.686 1090.602,115.686 C1096.962,115.686 1102.474,118.336 1107.032,122.894 L1118.056,111.87 C1111.166,104.556 1101.414,100.104 1090.602,100.104 C1069.614,100.104 1052.548,117.17 1052.548,138.264 C1052.548,159.358 1069.614,176.424 1090.602,176.424 C1114.452,176.424 1130.882,155.224 1128.762,132.01 L1128.762,132.01 Z" id="SALTY-RUNNING"></path>
        </g>
    </g>
</svg>